<svg xmlns="http://www.w3.org/2000/svg" width="24" height="24" viewBox="0 0 24 24" fill="none">
<path d="M14.923 2.25393C15.0627 2.23935 15.2038 2.2643 15.33 2.32595C15.4561 2.38772 15.5623 2.48365 15.6365 2.60282C15.7108 2.72199 15.7501 2.8596 15.75 3.00001V21C15.75 21.1989 15.671 21.3897 15.5303 21.5303C15.3897 21.671 15.1989 21.75 15 21.75C14.8331 21.7503 14.671 21.6945 14.5397 21.5916L7.99219 16.5H3.75C3.35218 16.5 2.97064 16.342 2.68934 16.0607C2.40804 15.7794 2.25 15.3978 2.25 15V9.00001C2.25 8.60218 2.40804 8.22065 2.68934 7.93935C2.97064 7.65804 3.35218 7.50001 3.75 7.50001H7.99219L14.5397 2.40845C14.6505 2.32206 14.7833 2.26852 14.923 2.25393ZM23.7806 10.2806L22.0603 12L23.7806 13.7194C23.9214 13.8601 24.0004 14.051 24.0004 14.25C24.0004 14.449 23.9214 14.6399 23.7806 14.7806C23.6399 14.9213 23.449 15.0004 23.25 15.0004C23.051 15.0004 22.8601 14.9213 22.7194 14.7806L21 13.0603L19.2806 14.7806C19.1399 14.9213 18.949 15.0004 18.75 15.0004C18.551 15.0004 18.3601 14.9213 18.2194 14.7806C18.0786 14.6399 17.9996 14.449 17.9996 14.25C17.9996 14.051 18.0786 13.8601 18.2194 13.7194L19.9397 12L18.2194 10.2806C18.0786 10.1399 17.9996 9.94901 17.9996 9.74999C17.9996 9.55097 18.0786 9.3601 18.2194 9.21936C18.3601 9.07863 18.551 8.99957 18.75 8.99957C18.949 8.99957 19.1399 9.07863 19.2806 9.21936L21 10.9397L22.7194 9.21936C22.8601 9.07863 23.051 8.99957 23.25 8.99957C23.449 8.99957 23.6399 9.07863 23.7806 9.21937C23.9214 9.3601 24.0004 9.55097 24.0004 9.74999C24.0004 9.94901 23.9214 10.1399 23.7806 10.2806Z" fill="#000"/>
</svg>