<svg xmlns="http://www.w3.org/2000/svg" width="24" height="24" viewBox="0 0 24 24" fill="none">
  <path d="M20.25 3.75H6.42468C6.16584 3.75111 5.91163 3.81867 5.68641 3.94622C5.46119 4.07377 5.2725 4.25703 5.13843 4.47844L0.856863 11.6137C0.786781 11.7304 0.749756 11.8639 0.749756 12C0.749756 12.1361 0.786781 12.2696 0.856863 12.3862L5.13843 19.5216C5.27243 19.743 5.4611 19.9263 5.68634 20.0539C5.91158 20.1815 6.16583 20.249 6.42468 20.25H20.25C20.6478 20.25 21.0293 20.092 21.3106 19.8107C21.592 19.5294 21.75 19.1478 21.75 18.75V5.25C21.75 4.85218 21.592 4.47064 21.3106 4.18934C21.0293 3.90804 20.6478 3.75 20.25 3.75ZM15.5306 13.7194C15.6003 13.7891 15.6556 13.8718 15.6933 13.9628C15.731 14.0539 15.7504 14.1515 15.7504 14.25C15.7504 14.3485 15.731 14.4461 15.6933 14.5372C15.6556 14.6282 15.6003 14.7109 15.5306 14.7806C15.4609 14.8503 15.3782 14.9056 15.2872 14.9433C15.1961 14.981 15.0985 15.0004 15 15.0004C14.9014 15.0004 14.8039 14.981 14.7128 14.9433C14.6218 14.9056 14.539 14.8503 14.4694 14.7806L12.75 13.0603L11.0297 14.7806C10.8889 14.9212 10.6981 15.0002 10.4992 15.0001C10.3003 15 10.1095 14.9209 9.96889 14.7802C9.82829 14.6394 9.74935 14.4486 9.74943 14.2497C9.74952 14.0507 9.82863 13.86 9.96936 13.7194L11.6897 12L9.96936 10.2806C9.82863 10.14 9.74952 9.94927 9.74943 9.75033C9.74939 9.65183 9.76875 9.55428 9.80641 9.46326C9.84406 9.37224 9.89927 9.28953 9.96889 9.21984C10.0385 9.15016 10.1212 9.09487 10.2122 9.05714C10.3032 9.0194 10.4007 8.99996 10.4992 8.99991C10.6981 8.99983 10.8889 9.07877 11.0297 9.21937L12.75 10.9397L14.4694 9.21937C14.539 9.14969 14.6218 9.09442 14.7128 9.0567C14.8039 9.01899 14.9014 8.99958 15 8.99958C15.0985 8.99958 15.1961 9.01899 15.2872 9.0567C15.3782 9.09442 15.4609 9.14969 15.5306 9.21937C15.6003 9.28906 15.6556 9.37178 15.6933 9.46283C15.731 9.55387 15.7504 9.65145 15.7504 9.75C15.7504 9.84855 15.731 9.94613 15.6933 10.0372C15.6556 10.1282 15.6003 10.2109 15.5306 10.2806L13.8103 12L15.5306 13.7194Z" fill="#000"/>
</svg>