<svg xmlns="http://www.w3.org/2000/svg" width="12" height="12" viewBox="0 0 12 12" fill="none">
  <path d="M9.54263 11H2.66127C2.40055 11 2.15051 10.8946 1.96615 10.7071C1.78179 10.5196 1.67822 10.2652 1.67822 10V2H10.5257V10C10.5257 10.2652 10.4221 10.5196 10.2378 10.7071C10.0534 10.8946 9.80335 11 9.54263 11ZM2.66127 3V10H9.54263V3H2.66127Z" fill="#000"/>
  <path d="M10.0342 5H2.16975V6H10.0342V5Z" fill="#000"/>
  <path d="M4.62738 7.5H3.64432V8.5H4.62738V7.5Z" fill="#000"/>
  <path d="M6.59348 7.5H5.61043V8.5H6.59348V7.5Z" fill="#000"/>
  <path d="M8.55958 7.5H7.57653V8.5H8.55958V7.5Z" fill="#000"/>
  <path d="M4.62738 1H3.64432V4H4.62738V1Z" fill="#000"/>
  <path d="M8.55958 1H7.57653V4H8.55958V1Z" fill="#000"/>
</svg>