<svg xmlns="http://www.w3.org/2000/svg" width="24" height="24" viewBox="0 0 24 24" fill="none">
  <path fill-rule="evenodd" clip-rule="evenodd" d="M20.7072 4.70706L15.4142 10L18 10V12L12 12L12 6H14L14 8.58582L19.293 3.29285L20.7072 4.70706ZM13.684 16.3853C13.8512 16.3474 14.0258 16.3587 14.1867 16.4178C15.1258 16.749 16.1077 16.9436 17.1022 16.9956C17.3396 17.0054 17.5648 17.1037 17.7333 17.2711C17.8184 17.3545 17.8858 17.4541 17.9316 17.564C17.9774 17.674 18.0007 17.792 18 17.9111V21.1111C18 21.3469 17.9063 21.573 17.7396 21.7397C17.5729 21.9064 17.3468 22 17.1111 22C13.1353 21.8987 9.35029 20.2741 6.53807 17.4619C3.72584 14.6497 2.10127 10.8648 2 6.88898C2 6.65324 2.09365 6.42716 2.26035 6.26046C2.42705 6.09376 2.65314 6.00011 2.88889 6.00011H6.08889C6.20736 5.99825 6.32501 6.0201 6.43492 6.06437C6.54482 6.10864 6.64477 6.17443 6.72888 6.25789C6.89782 6.42544 6.99639 6.65118 7.00444 6.88898C7.04283 7.86887 7.21939 8.83844 7.52888 9.76896C7.58055 9.93142 7.58717 10.1049 7.54803 10.2708C7.5089 10.4367 7.42548 10.5889 7.30666 10.7112L5.30666 12.7112C5.95461 13.9758 6.79751 15.1307 7.80444 16.1333C8.81014 17.1446 9.97156 17.9878 11.2444 18.631L13.2444 16.6311C13.3642 16.5085 13.5169 16.4231 13.684 16.3853Z" fill="#000"/>
</svg>