<svg xmlns="http://www.w3.org/2000/svg" width="32" height="32" viewBox="0 0 32 32" fill="none">
  <path fill-rule="evenodd" clip-rule="evenodd" d="M11.9091 8.24242V6.78787V5.78787L10.9091 5.78787L9.45459 5.78787L8.45459 5.78787V6.78787V8.24242V9.24242L9.45459 9.24242H10.9091H11.9091V8.24242ZM11.9091 14.0606V12.6061V11.6061H10.9091L9.45459 11.6061L8.45459 11.6061V12.6061V14.0606V15.0606H9.45459H10.9091H11.9091V14.0606ZM11.9091 18.4242V19.8788V20.8788H10.9091H9.45459H8.45459V19.8788V18.4242V17.4242L9.45459 17.4242L10.9091 17.4242L11.9091 17.4242V18.4242ZM17.7273 8.24242V6.78787V5.78787L16.7273 5.78787L15.2728 5.78787L14.2728 5.78787V6.78787V8.24242V9.24242L15.2728 9.24242H16.7273H17.7273V8.24242ZM17.7273 12.6061V14.0606V15.0606H16.7273H15.2728H14.2728V14.0606V12.6061V11.6061L15.2728 11.6061L16.7273 11.6061H17.7273V12.6061ZM17.7273 19.8788V18.4242V17.4242L16.7273 17.4242L15.2728 17.4242L14.2728 17.4242V18.4242V19.8788V20.8788H15.2728H16.7273H17.7273V19.8788ZM17.7273 24.2424V25.697V26.697H16.7273H15.2728H14.2728V25.697V24.2424V23.2424L15.2728 23.2424H16.7273H17.7273V24.2424ZM23.5455 8.24242V6.78787V5.78787L22.5455 5.78787L21.091 5.78787L20.091 5.78787V6.78787V8.24242V9.24242L21.091 9.24242H22.5455H23.5455V8.24242ZM23.5455 12.6061V14.0606V15.0606H22.5455H21.091H20.091V14.0606V12.6061V11.6061L21.091 11.6061L22.5455 11.6061H23.5455V12.6061ZM23.5455 19.8788V18.4242V17.4242L22.5455 17.4242L21.091 17.4242L20.091 17.4242V18.4242V19.8788V20.8788H21.091H22.5455H23.5455V19.8788Z" fill="#000"/>
</svg>