<svg xmlns="http://www.w3.org/2000/svg" width="28" height="28" viewBox="0 0 28 28" fill="none">
  <path fill-rule="evenodd" clip-rule="evenodd" d="M3.67505 14C3.67505 13.6134 3.98845 13.3 4.37505 13.3H23.625C24.0117 13.3 24.3251 13.6134 24.3251 14C24.3251 14.3866 24.0117 14.7 23.625 14.7H4.37505C3.98845 14.7 3.67505 14.3866 3.67505 14Z" fill="#000"/>
  <path fill-rule="evenodd" clip-rule="evenodd" d="M3.67505 6.99999C3.67505 6.61339 3.98845 6.29999 4.37505 6.29999H23.625C24.0117 6.29999 24.3251 6.61339 24.3251 6.99999C24.3251 7.38659 24.0117 7.69999 23.625 7.69999H4.37505C3.98845 7.69999 3.67505 7.38659 3.67505 6.99999Z" fill="#000"/>
  <path fill-rule="evenodd" clip-rule="evenodd" d="M3.67505 21C3.67505 20.6134 3.98845 20.3 4.37505 20.3H23.625C24.0117 20.3 24.3251 20.6134 24.3251 21C24.3251 21.3866 24.0117 21.7 23.625 21.7H4.37505C3.98845 21.7 3.67505 21.3866 3.67505 21Z" fill="#000"/>
</svg>