<svg xmlns="http://www.w3.org/2000/svg" width="24" height="24" viewBox="0 0 24 24" fill="none">
  <path fill-rule="evenodd" clip-rule="evenodd" d="M14.1867 16.4178C14.0258 16.3587 13.8512 16.3474 13.684 16.3853C13.5169 16.4231 13.3642 16.5085 13.2444 16.6311L11.2444 18.631C9.97156 17.9878 8.81014 17.1446 7.80444 16.1333C6.79751 15.1307 5.95461 13.9758 5.30666 12.7112L7.30666 10.7112C7.42548 10.5889 7.5089 10.4367 7.54803 10.2708C7.58717 10.1049 7.58055 9.93142 7.52888 9.76896C7.21939 8.83843 7.04283 7.86887 7.00444 6.88898C6.99639 6.65118 6.89782 6.42544 6.72888 6.25788C6.64477 6.17443 6.54482 6.10864 6.43492 6.06437C6.32501 6.0201 6.20736 5.99825 6.08889 6.00011H2.88889C2.65314 6.00011 2.42705 6.09376 2.26035 6.26046C2.09365 6.42715 2 6.65324 2 6.88898C2.10127 10.8648 3.72584 14.6497 6.53807 17.4619C9.35029 20.2741 13.1353 21.8987 17.1111 22C17.3468 22 17.5729 21.9064 17.7396 21.7397C17.9063 21.573 18 21.3469 18 21.1111V17.9111C18.0007 17.792 17.9774 17.674 17.9316 17.564C17.8858 17.4541 17.8184 17.3545 17.7333 17.2711C17.5648 17.1037 17.3396 17.0054 17.1022 16.9956C16.1077 16.9436 15.1258 16.749 14.1867 16.4178Z" fill="#000"/>
  <path d="M17.2929 5.29285L12 10.5858L13.4142 12L18.7072 6.70703V9.29285H20.7072V3.29285L14.7072 3.29285V5.29285L17.2929 5.29285Z" fill="#000"/>
</svg>