<svg xmlns="http://www.w3.org/2000/svg" width="28" height="28" viewBox="0 0 28 28" fill="none">
  <path d="M18.2284 11.3244C15.4886 10.4325 12.5114 10.4325 9.77166 11.3244V14.1476C9.77166 14.5069 9.57275 14.8085 9.2776 14.9625C8.32157 15.4437 7.42328 16.0853 6.62124 16.8874C6.45106 17.0575 6.22026 17.1531 5.9796 17.1531C5.73894 17.1531 5.50814 17.0575 5.33797 16.8874L3.09225 14.6416C2.92208 14.4715 2.82647 14.2407 2.82647 14C2.82647 13.7593 2.92208 13.5285 3.09225 13.3584C5.98517 10.4654 9.90882 8.84022 14 8.84022C18.0912 8.84022 22.0149 10.4654 24.9078 13.3584C25.078 13.5285 25.1736 13.7593 25.1736 14C25.1736 14.2407 25.078 14.4715 24.9078 14.6416L22.6621 16.8874C22.4919 17.0575 22.2611 17.1531 22.0205 17.1531C21.7798 17.1531 21.549 17.0575 21.3788 16.8874C20.5768 16.0853 19.6785 15.4437 18.7225 14.9625C18.4273 14.8085 18.2284 14.5069 18.2284 14.1476L18.2284 11.3244Z" fill="#000"/>
</svg>