<svg xmlns="http://www.w3.org/2000/svg" width="24" height="24" viewBox="0 0 24 24" fill="none">
  <path fill-rule="evenodd" clip-rule="evenodd" d="M12.176 2C7 2 2.731 5.954 2.227 11H0L3.176 16.5L6.352 11H4.245C4.74 7.061 8.104 4 12.176 4C16.587 4 20.176 7.589 20.176 12C20.176 16.411 16.587 20 12.176 20C9.849 20 7.641 18.988 6.118 17.226L4.605 18.532C6.508 20.736 9.268 22 12.176 22C17.69 22 22.176 17.514 22.176 12C22.176 6.486 17.69 2 12.176 2ZM11.176 7V12.414L15.469 16.707L16.883 15.293L13.176 11.586V7H11.176Z" fill="#000"/>
</svg>