<svg xmlns="http://www.w3.org/2000/svg" width="28" height="28" viewBox="0 0 28 28" fill="none">
  <path fill-rule="evenodd" clip-rule="evenodd" d="M18.6666 6.99999C18.6666 9.57732 16.5773 11.6667 14 11.6667C11.4226 11.6667 9.33329 9.57732 9.33329 6.99999C9.33329 4.42267 11.4226 2.33333 14 2.33333C16.5773 2.33333 18.6666 4.42267 18.6666 6.99999ZM16.3333 6.99999C16.3333 8.28866 15.2886 9.33333 14 9.33333C12.7113 9.33333 11.6666 8.28866 11.6666 6.99999C11.6666 5.71133 12.7113 4.66666 14 4.66666C15.2886 4.66666 16.3333 5.71133 16.3333 6.99999Z" fill="#000"/>
  <path fill-rule="evenodd" clip-rule="evenodd" d="M4.66663 21.4208C4.66663 19.6096 5.05742 17.7522 6.42717 16.5672C7.85953 15.328 10.2657 14 14 14C17.7342 14 20.1404 15.328 21.5728 16.5672C22.9425 17.7522 23.3333 19.6096 23.3333 21.4208V23.9167C23.3333 24.2388 23.0721 24.5 22.75 24.5H5.24996C4.92779 24.5 4.66663 24.2388 4.66663 23.9167V21.4208ZM21 21.4208V22.1667H6.99996V21.4208C6.99996 19.8298 7.36265 18.8432 7.95378 18.3318C9.002 17.425 10.877 16.3333 14 16.3333C17.123 16.3333 18.9979 17.425 20.0461 18.3318C20.6373 18.8432 21 19.8298 21 21.4208Z" fill="#000"/>
</svg>