<svg xmlns="http://www.w3.org/2000/svg" width="24" height="24" viewBox="0 0 24 24" fill="none">
  <path fill-rule="evenodd" clip-rule="evenodd" d="M13.9066 4.09114L21.7142 17.6503C21.9017 17.9717 22.0003 18.3373 22 18.7094C21.9997 19.0815 21.9004 19.4469 21.7124 19.768C21.52 20.1019 21.2422 20.3787 20.9076 20.57C20.5729 20.7612 20.1935 20.86 19.8081 20.8563H4.19281C3.8071 20.8604 3.42727 20.7617 3.0923 20.5704C2.75732 20.3792 2.47926 20.1022 2.28666 19.768C2.09893 19.4467 2 19.0813 2 18.7091C2 18.337 2.09893 17.9716 2.28666 17.6503L10.0943 4.09114C10.2894 3.75894 10.5679 3.4835 10.9023 3.29212C11.2366 3.10074 11.6152 3.00006 12.0004 3.00006C12.3857 3.00006 12.7643 3.10074 13.0986 3.29212C13.433 3.4835 13.7115 3.75894 13.9066 4.09114ZM11.0714 9H12.9286V15H11.0714V9ZM12 16.0424C12.2833 16.0424 12.5208 16.1362 12.7125 16.3238C12.9042 16.5114 13 16.7439 13 17.0212C13 17.2985 12.9042 17.531 12.7125 17.7186C12.5208 17.9062 12.2833 18 12 18C11.7167 18 11.4792 17.9062 11.2875 17.7186C11.0958 17.531 11 17.2985 11 17.0212C11 16.7439 11.0958 16.5114 11.2875 16.3238C11.4792 16.1362 11.7167 16.0424 12 16.0424Z" fill="#000"/>
</svg>