<svg width="104" height="16" viewBox="0 0 104 16" fill="none" xmlns="http://www.w3.org/2000/svg">
<path d="M1.15869 0.25L6.67732 0.253675L13.6029 15.7463H10.8805C9.14997 15.7463 7.57774 14.6953 6.84966 13.0564L1.15869 0.25Z" fill="#34C1CA"/>
<path d="M8.95308 0.253906L14.4717 0.257581L21.3973 15.7502H17.7041C16.568 15.7502 15.5339 15.0594 15.0521 13.9827L8.95308 0.253906Z" fill="#34CA5E"/>
<path d="M16.8564 0.257585L22.3117 0.261259L21.4008 10.4072L16.8564 0.257585Z" fill="#34CA5E"/>
<path d="M26.447 0.264648L30.8022 0.268317L32.4152 8.94831L34.7199 0.268317L39.0787 0.271985L41.4328 8.97399L42.9927 0.275654L47.3021 0.279323L44.7469 12.2978C44.3198 14.3118 42.601 15.7426 40.621 15.7426H39.5128L36.9328 5.97304L35.1822 12.5252C34.674 14.4256 33.0081 15.7426 31.1093 15.7426H29.8175L26.447 0.264648Z" fill="white"/>
<path d="M57.9043 0.279297H55.4408H52.9773L47.3408 15.7389L52.0173 15.7426L52.7691 13.1892H55.4338H58.0984L58.8467 15.7426L63.5231 15.7463L57.9043 0.279297ZM53.7467 9.87277L55.4373 4.13136L57.1208 9.87644L53.7467 9.87277Z" fill="white"/>
<path d="M73.9312 0.286872L70.5677 11.4175L67.2113 0.283203H62.5031L68.0336 15.7502H70.5642H73.0948L78.6394 0.290541L73.9312 0.286872Z" fill="white"/>
<path d="M84.841 0.290039H80.3198V15.7533H84.841V0.290039Z" fill="white"/>
<path d="M97.7935 7.69725L102.392 0.301283L97.4617 0.297614L94.8005 5.08885L92.1429 0.297614L87.2159 0.293945L91.8076 7.69358L86.7041 15.7572L91.7476 15.7609L94.8005 10.6798L97.8464 15.7646H102.886L97.7935 7.69725Z" fill="white"/>
</svg>
